<?xml version="1.0" encoding="UTF-8" standalone="no"?>
<!-- Generator: Adobe Illustrator 17.0.0, SVG Export Plug-In . SVG Version: 6.00 Build 0)  -->

<svg
   version="1.1"
   x="0px"
   y="0px"
   width="100"
   height="120"
   viewBox="0 0 100 120"
   xml:space="preserve"
   id="svg481"
   sodipodi:docname="EHeaterVertOff.svg"
   inkscape:version="1.1 (c68e22c387, 2021-05-23)"
   xmlns:inkscape="http://www.inkscape.org/namespaces/inkscape"
   xmlns:sodipodi="http://sodipodi.sourceforge.net/DTD/sodipodi-0.dtd"
   xmlns="http://www.w3.org/2000/svg"
   xmlns:svg="http://www.w3.org/2000/svg"><defs
   id="defs485">
	
	
</defs><sodipodi:namedview
   id="namedview483"
   pagecolor="#ffffff"
   bordercolor="#666666"
   borderopacity="1.0"
   inkscape:pageshadow="2"
   inkscape:pageopacity="0.0"
   inkscape:pagecheckerboard="0"
   showgrid="false"
   inkscape:showpageshadow="false"
   showborder="true"
   inkscape:zoom="2.6892089"
   inkscape:cx="-18.592828"
   inkscape:cy="19.894326"
   inkscape:window-width="1920"
   inkscape:window-height="1017"
   inkscape:window-x="-8"
   inkscape:window-y="-8"
   inkscape:window-maximized="1"
   inkscape:current-layer="svg481"
   height="120px"
   fit-margin-top="0"
   fit-margin-left="0"
   fit-margin-right="0"
   fit-margin-bottom="0" />
<path
   style="fill:#e7e9ea;stroke-width:0.999596"
   d="M 70.047,101.0723 70.078,0.046962 30,0 v 100.01615 c 0,0 35.23,0 36.887,0 1.657,0 3.16,1.05615 3.16,1.05615 z"
   id="path2611" /><polygon
   style="fill:#dddfe1"
   points="68.493,100.097 68.493,0.048 98.493,0.003 98.493,120.097 "
   id="polygon2613"
   transform="scale(1,0.99919232)" /><rect
   x="98.492996"
   y="0.0039978027"
   style="fill:#6a7276;stroke-width:0.999596"
   width="1.507"
   height="119.90308"
   id="rect2621" /><line
   style="fill:none;stroke:#abaaa9;stroke-width:0.599758;stroke-miterlimit:10"
   x1="68.492996"
   y1="100.01616"
   x2="68.492996"
   y2="0.047958374"
   id="line2627" />
<g
   id="Layer_1"
   transform="translate(0,-70)">
</g>
<line
   style="fill:none;stroke:#ffffff;stroke-width:0.18549;stroke-miterlimit:10"
   x1="2.3905346"
   y1="34.13298"
   x2="4.2323446"
   y2="35.318375"
   id="line22" /><polygon
   style="fill:#cdcec6"
   points="56.87,22.82 56.87,87.961 54.959,87.961 53.634,87.389 40.904,87.389 39.76,87.961 37.596,87.961 37.596,22.82 "
   id="polygon24"
   transform="matrix(0,0.60386781,1.4244308,0,-27.959809,12.13891)" /><polygon
   style="fill:#aeafa7"
   points="37.595,87.961 37.595,22.82 35.222,21.307 10.827,21.307 10.827,69.866 "
   id="polygon26"
   transform="matrix(0,0.60386781,1.4244308,0,-27.959809,12.13891)" /><polygon
   style="fill:#b4b5b0"
   points="54.557,21.307 35.222,21.307 37.596,22.82 39.669,22.82 40.874,23.347 53.703,23.362 55.028,22.821 56.87,22.82 "
   id="polygon28"
   transform="matrix(0,0.60386781,1.4244308,0,-27.959809,12.13891)" /><line
   style="fill:none;stroke:#ffffff;stroke-width:0.18549;stroke-miterlimit:10"
   x1="2.3905346"
   y1="33.40834"
   x2="4.5456991"
   y2="34.795425"
   id="line30" /><polyline
   style="fill:none;stroke:#999999;stroke-width:0.25;stroke-miterlimit:10"
   points="37.2,21.307 40.874,23.347    40.874,86.967  "
   id="polyline32"
   transform="matrix(0,0.60386781,1.4244308,0,-27.959809,12.13891)" /><polyline
   style="fill:none;stroke:#dcdbdb;stroke-width:0.25;stroke-miterlimit:10"
   points="52.694,21.307 55.028,22.821    55.028,87.524  "
   id="polyline34"
   transform="matrix(0,0.60386781,1.4244308,0,-27.959809,12.13891)" /><polyline
   style="fill:none;stroke:#999999;stroke-width:0.25;stroke-miterlimit:10"
   points="50.601,21.307 53.703,23.362    53.703,86.997  "
   id="polyline36"
   transform="matrix(0,0.60386781,1.4244308,0,-27.959809,12.13891)" /><polyline
   style="fill:none;stroke:#dcdbdb;stroke-width:0.25;stroke-miterlimit:10"
   points="36.944,21.307 39.669,22.82    39.669,87.599  "
   id="polyline38"
   transform="matrix(0,0.60386781,1.4244308,0,-27.959809,12.13891)" /><polygon
   style="fill:none;stroke:#f7f8f9;stroke-width:0.2;stroke-miterlimit:10"
   points="56.715,22.82 56.715,87.961 54.804,87.961 53.479,87.389 40.749,87.389 39.605,87.961 37.519,87.961 37.519,22.82 39.669,22.82 40.874,23.347 53.703,23.362 55.028,22.82 "
   id="polygon40"
   transform="matrix(0,0.60386781,1.4244308,0,-27.959809,12.13891)" /><polygon
   style="fill:#9d9b99"
   points="35.854,82.728 12.567,67.151 12.567,21.307 31.709,21.307 35.854,24.145 "
   id="polygon42"
   transform="matrix(0,0.60386781,1.4244308,0,-27.959809,12.13891)" /><path
   style="fill:none;stroke:#4f4c4b;stroke-width:1.8549;stroke-miterlimit:10"
   d="m 2.3905413,45.08291 c 0,0 0.4857309,0.31461 1.0782941,0.69867 0.5925633,0.38406 2.3602819,0.69868 3.9271558,0.69868 H 94.487115 c 1.566874,0 2.848861,-0.25966 2.848861,-0.57669 0,-0.31764 -0.183751,-0.75725 -0.407387,-0.97706 -0.223636,-0.21981 -0.407387,-0.94385 -0.407387,-1.6081 v -5.27177 c 0,-0.66425 0.183751,-1.36293 0.407387,-1.55315 0.223636,-0.19021 0.407387,-0.63949 0.407387,-0.99879 0,-0.3593 -0.717913,-1.10387 -1.595362,-1.654 L 73.154839,19.67759 C 72.27739,19.12746 70.277489,18.67698 68.710615,18.67698 H 2.3891169"
   id="path44" /><polygon
   style="fill:#827f7c"
   points="12.567,67.151 35.854,67.15 35.854,82.728 "
   id="polygon46"
   transform="matrix(0,0.60386781,1.4244308,0,-27.959809,12.13891)" /><g
   id="g76"
   transform="matrix(0,0.60386781,1.4244308,0,-27.959809,12.13891)"><g
     id="g72"><path
       style="fill:#bbc4c4;stroke:#000000;stroke-width:0.1;stroke-miterlimit:10"
       d="M 35.639,74.863 14.757,60.914 c 0,0 -0.758,-0.863 -0.66,-1.733 0.098,-0.87 0.66,-1.267 0.66,-1.267 l 20.882,13.949 z"
       id="path48" /><g
       id="g52"><path
         style="fill:#bbc4c4;stroke:#000000;stroke-width:0.1;stroke-miterlimit:10"
         d="M 35.639,68.863 14.757,54.914 c 0,0 -0.779,-1.042 -0.66,-1.865 0.118,-0.823 0.66,-1.136 0.66,-1.136 l 20.882,13.949 z"
         id="path50" /></g><path
       style="fill:#bbc4c4;stroke:#000000;stroke-width:0.1;stroke-miterlimit:10"
       d="M 35.639,62.862 14.757,48.914 c 0,0 -0.758,-0.912 -0.66,-1.768 0.097,-0.856 0.66,-1.232 0.66,-1.232 l 20.882,13.949 z"
       id="path54" /><path
       style="fill:#bbc4c4;stroke:#000000;stroke-width:0.1;stroke-miterlimit:10"
       d="M 35.639,56.862 14.757,42.913 c 0,0 -0.758,-1.084 -0.66,-1.865 0.098,-0.781 0.66,-1.136 0.66,-1.136 l 20.882,13.949 z"
       id="path56" /><g
       id="g60"><path
         style="fill:#bbc4c4;stroke:#000000;stroke-width:0.1;stroke-miterlimit:10"
         d="M 35.639,50.862 14.757,36.913 c 0,0 -0.757,-1.03 -0.66,-1.9 0.097,-0.87 0.66,-1.1 0.66,-1.1 l 20.882,13.949 z"
         id="path58" /></g><path
       style="fill:#bbc4c4;stroke:#000000;stroke-width:0.1;stroke-miterlimit:10"
       d="M 35.639,44.861 14.758,30.913 c 0,0 -0.778,-1.033 -0.66,-1.838 0.118,-0.806 0.66,-1.162 0.66,-1.162 L 35.64,41.862 Z"
       id="path62" /><path
       style="fill:#bbc4c4;stroke:#000000;stroke-width:0.1;stroke-miterlimit:10"
       d="M 35.639,38.861 14.758,24.912 c 0,0 -0.799,-1.074 -0.66,-1.952 0.139,-0.879 0.66,-1.048 0.66,-1.048 L 35.64,35.861 Z"
       id="path64" /><g
       id="g68"><polygon
         style="fill:#bbc4c4;stroke:#000000;stroke-width:0.1;stroke-miterlimit:10"
         points="35.639,29.861 35.639,32.861 17.976,21.045 22.461,21.045 "
         id="polygon66" /></g><polygon
       style="fill:#bbc4c4;stroke:#000000;stroke-width:0.1;stroke-miterlimit:10"
       points="35.64,23.86 35.639,26.86 26.946,21.045 31.431,21.045 "
       id="polygon70" /></g><path
     style="fill:#bbc4c4;stroke:#000000;stroke-width:0.1;stroke-miterlimit:10"
     d="M 35.639,80.348 14.758,66.399 c 0,0 -0.757,-1.081 -0.66,-1.856 0.097,-0.775 0.66,-1.144 0.66,-1.144 L 35.64,77.348 Z"
     id="path74" /></g><polyline
   style="fill:none;stroke:#3f3e3a;stroke-miterlimit:10"
   points="12.567,21.307 12.567,67.151 35.854,82.728    35.854,24.145 31.709,21.307  "
   id="polyline78"
   transform="matrix(0,0.60386781,1.4244308,0,-27.959809,12.13891)" /><g
   id="g82"
   transform="matrix(0,0.60386781,1.4244308,0,-27.959809,12.13891)"><polygon
     style="fill:#93908d"
     points="41.69,63.236 52.776,50.282 48.105,50.282 53.087,43.273 45.552,43.273 41.379,54.144 45.676,54.144 "
     id="polygon80" /></g><path
   style="fill:#e7e9ea;stroke-width:0.999596"
   d="M 30,0.032973 V 119.96803 L 1.592,101.04532 c 0,0 -1.592,-1.01618 -1.592,-3.13946 C 0,95.78258 0,0.001998 0,0.001998 Z"
   id="path2615" /><rect
   x="30"
   y="0.0039978027"
   style="fill:#6a7276;stroke-width:0.999596"
   width="1.507"
   height="119.90308"
   id="rect2619" /></svg>
