<?xml version="1.0" encoding="iso-8859-1"?>
<!-- Generator: Adobe Illustrator 17.0.0, SVG Export Plug-In . SVG Version: 6.00 Build 0)  -->
<!DOCTYPE svg PUBLIC "-//W3C//DTD SVG 1.1//EN" "http://www.w3.org/Graphics/SVG/1.1/DTD/svg11.dtd">
<svg version="1.1" xmlns="http://www.w3.org/2000/svg" xmlns:xlink="http://www.w3.org/1999/xlink" x="0px" y="0px" width="100px"
	 height="140.004px" viewBox="0 0 100 140.004" style="enable-background:new 0 0 100 140.004;" xml:space="preserve">
<g id="Fans_x5F_FanDown_x5F_On">
	<g>
		<g>
			<g>
				<polygon style="fill:#E7E9EA;" points="70.047,139.998 70.078,0.073 30,0 30,139.998 				"/>
				<g>
					<g>
						<polygon style="fill:#DDDFE1;" points="98.493,0.004 98.493,139.998 68.493,139.998 68.493,0.074 						"/>
						<polygon style="fill:#E7E9EA;" points="30,0.052 30,139.998 0,139.998 0,0.003 						"/>
					</g>
					<rect x="30" y="0.007" style="fill:#6A7276;" width="1.507" height="139.998"/>
					<rect x="98.493" y="0.007" style="fill:#6A7276;" width="1.507" height="139.868"/>
				</g>
			</g>
			
				<line style="fill:none;stroke:#ABAAA9;stroke-width:0.6;stroke-miterlimit:10;" x1="68.493" y1="139.998" x2="68.493" y2="0.074"/>
		</g>
		<g>
			<path style="fill:#B4B5B0;" d="M31.904,109.758l0.721,1.059h33.916v-1.674l-1.024-0.741v-3.293
				c18.105,0,32.781-14.677,32.781-32.781c0-6.632-1.958-12.858-5.338-18.05c-0.682-1.048-5.445-6.715-12.05-11.696
				c-7.23-5.453-16.324-10.21-16.324-10.21c-5.822-5.291-13.555-8.516-22.041-8.516c-3.821,0-7.491,0.649-10.904,1.843"/>
			<path style="fill:#CDCEC6;" d="M65.085,105.25c18.072,0,32.722-14.65,32.722-32.722s-14.65-32.722-32.722-32.722
				s-32.722,14.65-32.722,32.722v38.42h33.916v-1.449l-1.194-0.677V105.25z"/>
			<circle style="fill:#B4B5B0;" cx="65.085" cy="72.528" r="27.35"/>
			<circle style="fill:#848484;" cx="65.085" cy="72.528" r="22.303"/>
			<path style="fill:none;stroke:#E8E8E2;stroke-width:0.8;stroke-miterlimit:10;" d="M65.085,105.25
				c18.072,0,32.722-14.65,32.722-32.722s-14.65-32.722-32.722-32.722s-32.722,14.65-32.722,32.722v38.42h34.163v-1.385
				l-1.441-0.902V105.25z"/>
			<polyline style="fill:none;stroke:#526C7C;stroke-width:0.3;stroke-miterlimit:10;" points="32.431,108.629 32.692,109.016 
				64.495,109.016 			"/>
			<circle style="fill:none;stroke:#526C7C;stroke-width:0.1;stroke-miterlimit:10;" cx="65.085" cy="72.528" r="27.35"/>
			<g>
				<g>
					<g>
						<path style="fill:#A9A8A8;" d="M87.401,71.777c-3.475-0.002-7.044,0.856-9.92,2.257l0.36,0.746
							c3.012-1.291,6.219-1.315,9.53-1.313L87.401,71.777z"/>
					
					
						<path style="fill:#A9A8A8;" d="M84.855,83.037c-3.008-1.74-6.528-2.782-9.719-3.007l-0.061,0.826
							c3.254,0.388,6.044,1.971,8.909,3.629L84.855,83.037z"/>
					
					
						<path style="fill:#A9A8A8;" d="M77.026,91.51c-1.736-3.01-4.264-5.671-6.916-7.461l-0.466,0.685
							c2.624,1.962,4.25,4.728,5.904,7.595L77.026,91.51z"/>
					
				
				
					
						<path style="fill:#A9A8A8;" d="M65.996,94.938c0.002-3.475-0.855-7.044-2.256-9.92l-0.746,0.36
							c1.29,3.012,1.315,6.219,1.312,9.53L65.996,94.938z"/>
					
					
						<path style="fill:#A9A8A8;" d="M54.736,92.39c1.74-3.008,2.782-6.527,3.008-9.719l-0.826-0.061
							c-0.389,3.254-1.972,6.043-3.63,8.909L54.736,92.39z"/>
					
					
						<path style="fill:#A9A8A8;" d="M46.264,84.56c3.01-1.736,5.672-4.263,7.462-6.915l-0.685-0.466
							c-1.963,2.624-4.728,4.249-7.596,5.903L46.264,84.56z"/>
					
				
				
					
						<path style="fill:#A9A8A8;" d="M42.797,73.535c3.475,0.002,7.044-0.855,9.92-2.256l-0.36-0.746
							c-3.012,1.291-6.219,1.315-9.53,1.313L42.797,73.535z"/>
					
					
						<path style="fill:#A9A8A8;" d="M45.344,62.274c3.008,1.74,6.528,2.782,9.719,3.007l0.061-0.826
							c-3.254-0.389-6.043-1.971-8.909-3.629L45.344,62.274z"/>
					
					
						<path style="fill:#A9A8A8;" d="M53.173,53.802c1.736,3.01,4.264,5.672,6.916,7.461l0.466-0.685
							c-2.624-1.962-4.25-4.728-5.904-7.596L53.173,53.802z"/>
					
				
				
					
						<path style="fill:#A9A8A8;" d="M64.228,50.375c0,3.475,0.859,7.043,2.262,9.919l0.746-0.361
							c-1.292-3.011-1.319-6.219-1.318-9.529L64.228,50.375z"/>
					
					
						<path style="fill:#A9A8A8;" d="M75.49,52.916c-1.738,3.009-2.778,6.529-3.002,9.721l0.827,0.061
							c0.387-3.254,1.968-6.045,3.624-8.911L75.49,52.916z"/>
					
					
						<path style="fill:#A9A8A8;" d="M83.967,60.74c-3.009,1.738-5.669,4.267-7.458,6.92l0.686,0.466
							c1.961-2.625,4.725-4.252,7.592-5.908L83.967,60.74z"/>



						<animateTransform  
						 fill="remove" 
						 type="rotate" 
						 additive="replace" 
						 accumulate="none" 
						 restart="always" 
						 attributeName="transform" 
						 from="360 65.25 72.25" 
						 to="0 65.25 72.25" 
						 dur="3s" 
						 calcMode="linear" 
						 atrributeType="xml" 
						 repeatCount="indefinite">

						</animateTransform>


					</g>
				</g>
			</g>
			<g>
				<path style="fill:none;stroke:#4F4C4B;stroke-width:0.25;stroke-miterlimit:10;" d="M87.364,71.096
					c-3.473,0.104-7.014,1.07-9.846,2.558"/>
				<path style="fill:none;stroke:#4F4C4B;stroke-width:0.25;stroke-miterlimit:10;" d="M85.162,82.429
					c-3.06-1.647-6.61-2.581-9.806-2.709"/>
				<path style="fill:none;stroke:#4F4C4B;stroke-width:0.25;stroke-miterlimit:10;" d="M77.596,91.137
					c-1.827-2.956-4.435-5.539-7.14-7.247"/>
				<path style="fill:none;stroke:#4F4C4B;stroke-width:0.25;stroke-miterlimit:10;" d="M66.676,94.9
					c-0.104-3.473-1.07-7.015-2.557-9.847"/>
				<path style="fill:none;stroke:#4F4C4B;stroke-width:0.25;stroke-miterlimit:10;" d="M55.344,92.697
					c1.647-3.06,2.582-6.609,2.71-9.806"/>
				<path style="fill:none;stroke:#4F4C4B;stroke-width:0.25;stroke-miterlimit:10;" d="M46.636,85.13
					c2.956-1.827,5.539-4.435,7.247-7.14"/>
				<path style="fill:none;stroke:#4F4C4B;stroke-width:0.25;stroke-miterlimit:10;" d="M42.834,74.215
					c3.473-0.104,7.014-1.07,9.847-2.558"/>
				<path style="fill:none;stroke:#4F4C4B;stroke-width:0.25;stroke-miterlimit:10;" d="M45.036,62.882
					c3.06,1.647,6.609,2.581,9.806,2.709"/>
				<path style="fill:none;stroke:#4F4C4B;stroke-width:0.25;stroke-miterlimit:10;" d="M52.603,54.175
					c1.827,2.956,4.435,5.539,7.14,7.247"/>
				<path style="fill:none;stroke:#4F4C4B;stroke-width:0.25;stroke-miterlimit:10;" d="M63.548,50.412
					c0.106,3.473,1.074,7.014,2.564,9.845"/>
				<path style="fill:none;stroke:#4F4C4B;stroke-width:0.25;stroke-miterlimit:10;" d="M74.883,52.607
					c-1.645,3.061-2.577,6.611-2.703,9.808"/>
				<path style="fill:none;stroke:#4F4C4B;stroke-width:0.25;stroke-miterlimit:10;" d="M83.595,60.169
					c-2.955,1.829-5.536,4.438-7.243,7.144"/>


						<animateTransform  
						 fill="remove" 
						 type="rotate" 
						 additive="replace" 
						 accumulate="none" 
						 restart="always" 
						 attributeName="transform" 
						 from="360 65.25 72.25" 
						 to="0 65.25 72.25" 
						 dur="3s" 
						 calcMode="linear" 
						 atrributeType="xml" 
						 repeatCount="indefinite">

					</animateTransform>


			</g>
			<circle style="fill:none;stroke:#4F4C4B;stroke-width:0.75;stroke-miterlimit:10;" cx="65.085" cy="72.528" r="22.303"/>
			<rect x="32.705" y="109.986" style="fill:#CCCCCC;" width="33.046" height="0.657"/>
			
				<line style="fill:none;stroke:#E5E5DF;stroke-width:0.35;stroke-miterlimit:10;" x1="32.705" y1="110.018" x2="65.751" y2="109.953"/>
			<circle style="fill:none;stroke:#757576;stroke-width:0.15;stroke-miterlimit:10;" cx="65.085" cy="72.375" r="6.669"/>
			<path style="fill:none;stroke:#B5B5B6;stroke-width:0.2;stroke-miterlimit:10;" d="M64.2,109.112v-5.195
				c18.405,0,32.608-14.102,32.608-31.498S82.605,40.922,65.085,40.922S33.361,55.024,33.361,72.42v36.596"/>
			<circle style="fill:#757576;" cx="65.085" cy="72.375" r="4.873"/>
			<g>
				<path style="fill:none;stroke:#E8E8E2;stroke-width:0.2;stroke-miterlimit:10;" d="M63.882,32.043
					c-5.026-3.145-10.968-4.964-17.335-4.964c-5.368,0-10.435,1.293-14.905,3.584"/>
				<path style="fill:none;stroke:#B5B5B6;stroke-width:0.2;stroke-miterlimit:10;" d="M64.023,31.951
					c-5.056-3.2-11.05-5.053-17.476-5.053c-5.369,0-10.435,1.293-14.906,3.584"/>
			</g>
			<g>
				<path style="fill:none;stroke:#E8E8E2;stroke-width:0.2;stroke-miterlimit:10;" d="M78.311,41.787
					c-5.22-3.524-11.512-5.581-18.285-5.581c-12.171,0-22.79,6.645-28.427,16.505"/>
				<path style="fill:none;stroke:#B5B5B6;stroke-width:0.2;stroke-miterlimit:10;" d="M78.345,41.63
					c-5.227-3.538-11.532-5.605-18.32-5.605c-12.14,0-22.736,6.611-28.384,16.43"/>
			</g>
			<path style="fill:none;stroke:#4F4C4B;stroke-width:1.6;stroke-miterlimit:10;" d="M31.641,109.889l0.721,1.059l34.163-0.086
				v-1.385l-1.271-0.946v-3.292c18.105,0,32.781-14.677,32.781-32.781c0-6.632-1.958-12.858-5.338-18.05
				c-0.672-1.033-4.005-5.425-10.258-10.334c-7.039-5.527-20.801-13.825-22.273-14.785c-5.143-3.354-11.286-5.303-17.884-5.303
				c-3.821,0-7.491,0.649-10.904,1.843"/>
		</g>
	</g>
	

</g>
<g id="Layer_1">
</g>
</svg>
