<?xml version="1.0" encoding="iso-8859-1"?>
<!-- Generator: Adobe Illustrator 17.0.0, SVG Export Plug-In . SVG Version: 6.00 Build 0)  -->
<!DOCTYPE svg PUBLIC "-//W3C//DTD SVG 1.1//EN" "http://www.w3.org/Graphics/SVG/1.1/DTD/svg11.dtd">
<svg version="1.1" xmlns="http://www.w3.org/2000/svg" xmlns:xlink="http://www.w3.org/1999/xlink" x="0px" y="0px"
	 width="55.421px" height="55.421px" viewBox="0 0 55.421 55.421" style="enable-background:new 0 0 55.421 55.421;"
	 xml:space="preserve">
<g id="MISC_x5F_UI_x5F_SWITCH_x5F_L">
	<g>
		<circle style="fill:#D8D8D6;" cx="27.71" cy="27.698" r="27.01"/>
		<circle style="fill:none;stroke:#51514E;stroke-width:1.4;stroke-miterlimit:10;" cx="27.71" cy="27.71" r="27.01"/>
		<circle style="fill:#E8E8E6;" cx="27.71" cy="27.71" r="24.893"/>
		<g>
			<g>
				<g>
					
						<line style="fill:none;stroke:#A9A8A8;stroke-width:1.5;stroke-miterlimit:10;" x1="2.71" y1="27.698" x2="52.71" y2="27.698"/>
					
						<line style="fill:none;stroke:#A9A8A8;stroke-width:1.5;stroke-miterlimit:10;" x1="27.71" y1="52.603" x2="27.71" y2="2.817"/>
				</g>
				<g>
					
						<line style="fill:none;stroke:#A9A8A8;stroke-width:1.5;stroke-miterlimit:10;" x1="10.033" y1="45.376" x2="45.388" y2="10.02"/>
					
						<line style="fill:none;stroke:#A9A8A8;stroke-width:1.5;stroke-miterlimit:10;" x1="45.388" y1="45.235" x2="10.033" y2="10.186"/>
				</g>
			</g>
			<g>
				<g>
					
						<line style="fill:none;stroke:#A9A8A8;stroke-width:1.5;stroke-miterlimit:10;" x1="3.798" y1="34.137" x2="51.546" y2="21.478"/>
					
						<line style="fill:none;stroke:#A9A8A8;stroke-width:1.5;stroke-miterlimit:10;" x1="34.407" y1="51.69" x2="21.367" y2="3.634"/>
				</g>
				<g>
					
						<line style="fill:none;stroke:#A9A8A8;stroke-width:1.5;stroke-miterlimit:10;" x1="15.446" y1="49.318" x2="40.206" y2="6.432"/>
					
						<line style="fill:none;stroke:#A9A8A8;stroke-width:1.5;stroke-miterlimit:10;" x1="49.369" y1="39.984" x2="6.229" y2="15.129"/>
				</g>
			</g>
			<g>
				<g>
					
						<line style="fill:none;stroke:#A9A8A8;stroke-width:1.5;stroke-miterlimit:10;" x1="6.387" y1="40.198" x2="49.369" y2="15.437"/>
					
						<line style="fill:none;stroke:#A9A8A8;stroke-width:1.5;stroke-miterlimit:10;" x1="40.206" y1="49.243" x2="15.446" y2="5.89"/>
				</g>
				<g>
					
						<line style="fill:none;stroke:#A9A8A8;stroke-width:1.5;stroke-miterlimit:10;" x1="21.567" y1="51.846" x2="34.407" y2="3.926"/>
					
						<line style="fill:none;stroke:#A9A8A8;stroke-width:1.5;stroke-miterlimit:10;" x1="51.546" y1="33.997" x2="3.687" y2="21.173"/>
				</g>
			</g>
		</g>
		<circle style="fill:#DBDAD9;stroke:#686865;stroke-width:0.75;stroke-miterlimit:10;" cx="27.71" cy="27.71" r="20.237"/>
		<circle style="fill:#B2B1B1;" cx="27.71" cy="27.698" r="13.958"/>
		<g>
			<path style="fill:#E8E8E6;" d="M43.956,41.031c0,0-2.343,2.981-5.044,4.695s-6.396,2.565-6.396,2.565L11.241,10.552
				c0,0,0.181-1.823,3.041-3.638s4.586-1.202,4.586-1.202L43.956,41.031z"/>
			<path style="fill:#F2F2F0;" d="M37.711,39.987c0.584,0.921,0.279,2.161-0.682,2.771l0,0c-0.961,0.61-2.214,0.358-2.798-0.563
				L15.483,12.653c-0.584-0.921-0.279-2.161,0.682-2.771l0,0c0.961-0.61,2.214-0.358,2.798,0.563L37.711,39.987z"/>
			<path style="fill:none;stroke:#686865;stroke-width:0.5;stroke-miterlimit:10;" d="M44.004,41.107c0,0-2.343,2.981-5.044,4.695
				s-6.396,2.565-6.396,2.565L11.289,10.628c0,0,0.181-1.823,3.041-3.638s4.586-1.202,4.586-1.202L44.004,41.107z"/>
		</g>
	</g>
</g>
<g id="Layer_1">
</g>
</svg>
