<?xml version="1.0" encoding="UTF-8" standalone="no"?>
<!-- Generator: Adobe Illustrator 17.0.0, SVG Export Plug-In . SVG Version: 6.00 Build 0)  -->

<svg
   version="1.1"
   x="0px"
   y="0px"
   width="60"
   height="60"
   viewBox="0 0 59.999998 59.999998"
   xml:space="preserve"
   id="svg3260"
   sodipodi:docname="s2.svg"
   inkscape:version="1.1 (c68e22c387, 2021-05-23)"
   xmlns:inkscape="http://www.inkscape.org/namespaces/inkscape"
   xmlns:sodipodi="http://sodipodi.sourceforge.net/DTD/sodipodi-0.dtd"
   xmlns="http://www.w3.org/2000/svg"
   xmlns:svg="http://www.w3.org/2000/svg"><defs
   id="defs3264" /><sodipodi:namedview
   id="namedview3262"
   pagecolor="#ffffff"
   bordercolor="#666666"
   borderopacity="1.0"
   inkscape:pageshadow="2"
   inkscape:pageopacity="0.0"
   inkscape:pagecheckerboard="0"
   showgrid="false"
   width="60px"
   inkscape:zoom="6.7934536"
   inkscape:cx="31.795316"
   inkscape:cy="41.731352"
   inkscape:window-width="1920"
   inkscape:window-height="1017"
   inkscape:window-x="-8"
   inkscape:window-y="-8"
   inkscape:window-maximized="1"
   inkscape:current-layer="svg3260" />
<g
   id="MISC_x5F_UI_x5F_SWITCH_x5F_L"
   transform="rotate(2,-34.213541,104.71202)">
	<g
   id="g3256">
		<circle
   style="fill:#d8d8d6"
   cx="27.709999"
   cy="27.698"
   r="27.01"
   id="circle3194" />
		<circle
   style="fill:none;stroke:#51514e;stroke-width:1.4;stroke-miterlimit:10"
   cx="27.709999"
   cy="27.709999"
   r="27.01"
   id="circle3196" />
		<circle
   style="fill:#e8e8e6"
   cx="27.709999"
   cy="27.709999"
   r="24.893"
   id="circle3198" />
		<g
   id="g3242">
			<g
   id="g3212">
				<g
   id="g3204">
					
						<line
   style="fill:none;stroke:#a9a8a8;stroke-width:1.5;stroke-miterlimit:10"
   x1="2.71"
   y1="27.698"
   x2="52.709999"
   y2="27.698"
   id="line3200" />
					
						<line
   style="fill:none;stroke:#a9a8a8;stroke-width:1.5;stroke-miterlimit:10"
   x1="27.709999"
   y1="52.603001"
   x2="27.709999"
   y2="2.8169999"
   id="line3202" />
				</g>
				<g
   id="g3210">
					
						<line
   style="fill:none;stroke:#a9a8a8;stroke-width:1.5;stroke-miterlimit:10"
   x1="10.033"
   y1="45.375999"
   x2="45.388"
   y2="10.02"
   id="line3206" />
					
						<line
   style="fill:none;stroke:#a9a8a8;stroke-width:1.5;stroke-miterlimit:10"
   x1="45.388"
   y1="45.235001"
   x2="10.033"
   y2="10.186"
   id="line3208" />
				</g>
			</g>
			<g
   id="g3226">
				<g
   id="g3218">
					
						<line
   style="fill:none;stroke:#a9a8a8;stroke-width:1.5;stroke-miterlimit:10"
   x1="3.7980001"
   y1="34.137001"
   x2="51.546001"
   y2="21.478001"
   id="line3214" />
					
						<line
   style="fill:none;stroke:#a9a8a8;stroke-width:1.5;stroke-miterlimit:10"
   x1="34.407001"
   y1="51.689999"
   x2="21.367001"
   y2="3.6340001"
   id="line3216" />
				</g>
				<g
   id="g3224">
					
						<line
   style="fill:none;stroke:#a9a8a8;stroke-width:1.5;stroke-miterlimit:10"
   x1="15.446"
   y1="49.318001"
   x2="40.206001"
   y2="6.4320002"
   id="line3220" />
					
						<line
   style="fill:none;stroke:#a9a8a8;stroke-width:1.5;stroke-miterlimit:10"
   x1="49.368999"
   y1="39.984001"
   x2="6.2290001"
   y2="15.129"
   id="line3222" />
				</g>
			</g>
			<g
   id="g3240">
				<g
   id="g3232">
					
						<line
   style="fill:none;stroke:#a9a8a8;stroke-width:1.5;stroke-miterlimit:10"
   x1="6.3870001"
   y1="40.198002"
   x2="49.368999"
   y2="15.437"
   id="line3228" />
					
						<line
   style="fill:none;stroke:#a9a8a8;stroke-width:1.5;stroke-miterlimit:10"
   x1="40.206001"
   y1="49.243"
   x2="15.446"
   y2="5.8899999"
   id="line3230" />
				</g>
				<g
   id="g3238">
					
						<line
   style="fill:none;stroke:#a9a8a8;stroke-width:1.5;stroke-miterlimit:10"
   x1="21.566999"
   y1="51.846001"
   x2="34.407001"
   y2="3.9260001"
   id="line3234" />
					
						<line
   style="fill:none;stroke:#a9a8a8;stroke-width:1.5;stroke-miterlimit:10"
   x1="51.546001"
   y1="33.997002"
   x2="3.687"
   y2="21.173"
   id="line3236" />
				</g>
			</g>
		</g>
		<circle
   style="fill:#dbdad9;stroke:#686865;stroke-width:0.75;stroke-miterlimit:10"
   cx="27.709999"
   cy="27.709999"
   r="20.237"
   id="circle3244" />
		<circle
   style="fill:#b2b1b1"
   cx="27.709999"
   cy="27.698"
   r="13.958"
   id="circle3246" />
		<g
   id="g3254">
			<path
   style="fill:#e8e8e6"
   d="m 43.956,41.031 c 0,0 -2.343,2.981 -5.044,4.695 -2.701,1.714 -6.396,2.565 -6.396,2.565 L 11.241,10.552 c 0,0 0.181,-1.823 3.041,-3.638 2.86,-1.815 4.586,-1.202 4.586,-1.202 z"
   id="path3248" />
			<path
   style="fill:#f2f2f0"
   d="m 37.711,39.987 c 0.584,0.921 0.279,2.161 -0.682,2.771 v 0 c -0.961,0.61 -2.214,0.358 -2.798,-0.563 L 15.483,12.653 c -0.584,-0.921 -0.279,-2.161 0.682,-2.771 v 0 c 0.961,-0.61 2.214,-0.358 2.798,0.563 z"
   id="path3250" />
			<path
   style="fill:none;stroke:#686865;stroke-width:0.5;stroke-miterlimit:10"
   d="m 44.004,41.107 c 0,0 -2.343,2.981 -5.044,4.695 -2.701,1.714 -6.396,2.565 -6.396,2.565 L 11.289,10.628 c 0,0 0.181,-1.823 3.041,-3.638 2.86,-1.815 4.586,-1.202 4.586,-1.202 z"
   id="path3252" />
		</g>
	</g>
</g>
<g
   id="Layer_1">
</g>
</svg>
